<?xml version="1.0" encoding="utf-8"?>
<!-- Generator: Adobe Illustrator 25.2.0, SVG Export Plug-In . SVG Version: 6.00 Build 0)  -->
<svg version="1.1" id="Layer_1" xmlns="http://www.w3.org/2000/svg" xmlns:xlink="http://www.w3.org/1999/xlink" x="0px" y="0px"
	 viewBox="0 0 2000 2000" style="enable-background:new 0 0 2000 2000;" xml:space="preserve">
<style type="text/css">
	.st0{fill:#171719;}
	.st1{fill:#FFFFFF;}
	.st2{fill:url(#SVGID_1_);}
	.st3{fill:url(#SVGID_2_);}
	.st4{fill:#953A9A;}
	.st5{fill:url(#SVGID_3_);}
	.st6{fill:#FF0032;}
	.st7{fill:url(#SVGID_4_);}
</style>
<g>
	<path class="st0" d="M1954.5,646.3c-51.6-306.5-221.3-513.7-533.1-583.1C1145.8,1.9,867.3,1.8,591.5,61.3
		C301.6,123.8,123,303.7,60.5,593.6c-57.4,265.6-57.4,533-3.2,799c58.8,288.7,229.4,476.8,520.7,542.6
		c283.8,64.1,570,64.1,853.3-1.7c225.4-52.3,391.1-181.7,475.3-404.6c61-161.6,67.6-330,76.5-558.7
		C1983.1,897.9,1975.7,772.4,1954.5,646.3z"/>
</g>
<g>
	<path class="st1" d="M1689.6,999.7c0,0,0,37.8-1.7,90.1c-1.4,41.4-3.9,92-8.3,140.1c-4.2,45-10.1,87.9-18.4,119.1
		c-15.6,59-61.8,105.3-120.3,121.2c-49,13.3-166.3,20.3-278.3,24.2c-130.4,4.5-253.5,4.5-253.5,4.5s-4.7,0-13.3,0
		c-72.7-0.3-423.6-3-518.5-28.6c-58.5-15.7-104.7-62.2-120.3-121.2c-28.5-106.8-28.5-349.3-28.5-349.3s0-240.7,28.5-347.5
		c15.6-59,61.8-105.3,120.3-121.2c82.7-22.3,359.5-27.2,477.7-28.4c33.4-0.3,54.2-0.3,54.2-0.3s88.9,0,195.6,2.8
		c15,0.4,30.4,0.9,45.9,1.3c1.6,0,3.2,0.1,4.7,0.1c10.3,0.3,20.7,0.7,31,1.1c21.7,0.9,43.5,1.8,64.5,2.9
		c54.4,2.9,105.3,6.7,143.7,11.9c0.7,0.1,1.5,0.2,2.1,0.3c1.7,0.2,3.3,0.4,5,0.7c7.2,1.1,13.8,2.1,19.9,3.2
		c7.2,1.3,13.6,2.8,19.2,4.3c58.5,15.7,104.7,62.2,120.3,121.2c10.9,41.2,17.7,102.2,21.8,161.7c3.6,52.7,5.4,104,6,139.4
		C1689.6,981.7,1689.6,999.7,1689.6,999.7z"/>
	
		<linearGradient id="SVGID_1_" gradientUnits="userSpaceOnUse" x1="854.7024" y1="-723.2041" x2="1086.9851" y2="-955.4869" gradientTransform="matrix(1 0 0 1 0 1840)">
		<stop  offset="4.795011e-07" style="stop-color:#2E73FF"/>
		<stop  offset="1" style="stop-color:#FF0032"/>
	</linearGradient>
	<path class="st2" d="M1165.9,965.4L944.3,837.5c-27.1-15.6-61,4-61,35.2v255.8c0,31.4,33.9,50.8,61,35.2l221.5-127.9
		C1193,1020.2,1193,981.1,1165.9,965.4z"/>
	<path class="st1" d="M1123.7,978.2c-1,0-1.9-0.2-2.9-0.7l-45-26c-2.8-1.6-3.7-5.1-2.1-7.9s5.1-3.7,7.9-2.1l45,26
		c2.8,1.6,3.7,5.1,2.1,7.9C1127.7,977.1,1125.8,978.2,1123.7,978.2z"/>
	<circle class="st1" cx="1141.1" cy="981.1" r="6.2"/>
	
		<linearGradient id="SVGID_2_" gradientUnits="userSpaceOnUse" x1="1564.9065" y1="-1080.297" x2="1449.9177" y2="-1279.4634" gradientTransform="matrix(1 0 0 1 0 1840)">
		<stop  offset="4.049120e-07" style="stop-color:#953A9A"/>
		<stop  offset="1" style="stop-color:#FF0032"/>
	</linearGradient>
	<path class="st3" d="M1587,745c-6,0-11.3-4.2-12.7-10.2c-1-4.2-1.9-8-2.9-11.8c-10.8-40.7-38.2-75.5-75.1-95.6
		c-10.4-5.6-21.3-10-32.6-13.1c-5.9-1.5-12.2-2.9-17.9-4c-4.8-0.9-16.1-2.9-27.6-4.5c-7.2-1-12.2-7.6-11.1-14.8
		c1-7.2,7.6-12.2,14.8-11.1c14.9,2,27.4,4.4,28.8,4.7h0.1c6.1,1.2,13,2.7,19.3,4.3c0.1,0,0.2,0,0.2,0.1c13.4,3.6,26.2,8.8,38.4,15.4
		c43.2,23.4,75.3,64.2,88,111.8c1.1,4,2.1,8.2,3.1,12.6c1.6,7.1-2.8,14-9.8,15.6C1589,744.8,1588,745,1587,745z"/>
	<circle class="st4" cx="1596" cy="774.7" r="13.6"/>
	
		<linearGradient id="SVGID_3_" gradientUnits="userSpaceOnUse" x1="2010.833" y1="2523.9717" x2="2010.833" y2="2689.0449" gradientTransform="matrix(-1 0 0 -1 2514.123 3945.2698)">
		<stop  offset="4.049120e-07" style="stop-color:#953A9A"/>
		<stop  offset="1" style="stop-color:#FF0032"/>
	</linearGradient>
	<path class="st5" d="M419.7,1256.2c6,0,11.3,4.2,12.7,10.2c1,4.2,1.9,8,2.9,11.8c10.8,40.7,38.2,75.5,75.1,95.6
		c10.4,5.6,21.3,10,32.6,13.1c5.9,1.5,12.2,2.9,17.9,4c4.8,0.9,16.1,2.9,27.6,4.5c7.2,1,12.2,7.6,11.1,14.8
		c-1,7.2-7.6,12.2-14.8,11.1c-14.9-2-27.4-4.4-28.8-4.7H556c-6.1-1.2-13-2.7-19.3-4.3c-0.1,0-0.2,0-0.2-0.1
		c-13.4-3.6-26.2-8.8-38.4-15.4c-43.2-23.4-75.3-64.2-88-111.8c-1.1-4-2.1-8.2-3.1-12.6c-1.6-7.1,2.8-14,9.8-15.6
		C417.8,1256.3,418.7,1256.2,419.7,1256.2z"/>
	<circle class="st6" cx="410.6" cy="1226.5" r="13.6"/>
	
		<linearGradient id="SVGID_4_" gradientUnits="userSpaceOnUse" x1="755.2349" y1="-424.5818" x2="1543.6442" y2="-1212.991" gradientTransform="matrix(1 0 0 1 0 1840)">
		<stop  offset="4.795011e-07" style="stop-color:#2E73FF"/>
		<stop  offset="1" style="stop-color:#FF0032"/>
	</linearGradient>
	<path class="st7" d="M954.8,502.7c-13-20.9-14.2-48.1-1.1-70.7l1.5-2.5c19.1-32.8,61-43.8,93.8-24.7l155.6,100.4
		c-106.7-2.8-195.6-2.8-195.6-2.8S988.2,502.4,954.8,502.7z M1802.6,891l-119.7-77.2c3.6,52.7,5.4,104,6,139.4l10.2,6.1
		c46.9,28.3,46.7,96.3-0.5,124.2l-10.8,6.4l-692,408.8l-21.1,12.5c-32.9,18.8-44.3,60.7-25.5,93.5l1.5,2.6
		c18.7,32.9,60.7,44.3,93.5,25.5l218.3-138.4l417.1-264.4l122-77.4C1897.2,1091.9,1897.8,952.5,1802.6,891z"/>
</g>
</svg>
