<?xml version="1.0" encoding="utf-8"?>
<!-- Generator: Adobe Illustrator 22.0.0, SVG Export Plug-In . SVG Version: 6.00 Build 0)  -->
<svg version="1.1" id="Layer_1" xmlns="http://www.w3.org/2000/svg" xmlns:xlink="http://www.w3.org/1999/xlink" x="0px" y="0px"
	 viewBox="0 0 64 81" style="enable-background:new 0 0 64 81;" xml:space="preserve">
<style type="text/css">
	.st0{fill:#9CA9B3;}
</style>
<path class="st0" d="M27.9,48.8c0,0,0.5,3.1-0.1,10C27,67.4,31,81,31,81s5.5-13.7,4.6-22.5c-0.8-7.2,0.4-9.8,0.1-9.4
	C31.5,55,27.9,48.8,27.9,48.8L27.9,48.8z M38.3,56.2c0.7,5.4-0.1,8.3-1.1,14c-0.5,2.9,10.4-8.7,14.5-15.7c0.7-1.1-4,4.5-8.6,0.5
	c-3.2-2.8-3.8-3.7-6.3-6.1C36,48.1,37.8,52.4,38.3,56.2L38.3,56.2z M26.4,49.4c-2.5,2.4-3,3.3-6.2,6.1c-4.6,4-9.3-1.6-8.6-0.5
	c4.2,6.9,15,18.6,14.5,15.7c-1-5.7-1.8-8.7-1.1-14C25.5,52.8,27.3,48.6,26.4,49.4L26.4,49.4z M37.1,39.8c5.1,1.5,7,8.5,12.2,9.4
	c1.1,0.2,2.3,0.5,3.6,0.4c2.6-0.1,5.9-1.6,10.3-7.8c1.3-1.8-3.2,11.8-14.5,12c-8.3,0.1-9.3-8.1-14.8-8.4c-2-0.1-2.1-3.9-2.1-3.9
	S34.1,38.9,37.1,39.8L37.1,39.8z M26.4,39.8c-5.1,1.5-7,8.5-12.2,9.4c-1.1,0.2-2.3,0.5-3.6,0.4C8,49.5,4.7,48,0.3,41.8
	c-1.3-1.8,3.2,11.8,14.5,12c8.3,0.1,9.3-8.1,14.8-8.4c2-0.1,2.1-3.9,2.1-3.9S29.4,38.9,26.4,39.8z M45.3,39.7
	c5.1,3.9,3.6,8.1,6.5,6.9c9.6-4.1,8-25.1,7.2-22.5c-4.4,14.3-14,15.1-23.2,8.5C34,31.3,42.5,37.5,45.3,39.7L45.3,39.7z M27.7,32.6
	c-9.2,6.6-18.8,5.8-23.2-8.5C3.7,21.5,2,42.5,11.7,46.6c2.9,1.2,1.3-3,6.4-6.9C21,37.5,29.5,31.3,27.7,32.6L27.7,32.6z M46.3,34.6
	c11.1-0.5,13.2-18.7,12.3-16.5c-3.9,10-18.8,6.2-20.2,12.5C38.1,31.9,40.9,34.8,46.3,34.6L46.3,34.6z M25.1,30.6
	c-1.4-6.3-16.3-2.5-20.2-12.5C4,15.9,6,34.1,17.2,34.6C22.5,34.8,25.3,31.9,25.1,30.6L25.1,30.6z M37.7,27.9c0,0,6-3.2,11.2-4.7
	c4.8-1.3,8.5-4.6,8.9-8c0.3-2.6-3.8-7.4-3.8-7.4s-2.8,7.9-6.5,11.8C43.4,23.9,45,23.3,37.7,27.9L37.7,27.9z M16,19.6
	C12.2,15.6,9.4,7.8,9.4,7.8s-4,4.8-3.7,7.4c0.4,3.4,4,6.7,8.9,8c5.2,1.4,11.2,4.7,11.2,4.7C18.5,23.3,20,23.8,16,19.6z M37,27.4
	C43.5,22,47,15,52.7,7.3c1.1-1.4-4.8-4.9-7.1-5.2c-2.3-0.2-4.3,8.3-4.5,13.3C40.9,20,36.1,28.1,37,27.4L37,27.4z M22.4,15.4
	c-0.2-5-2.2-13.5-4.5-13.3c-2.3,0.2-8.2,3.7-7.1,5.2c5.7,7.7,9.2,14.7,15.7,20C27.4,28.1,22.6,20,22.4,15.4L22.4,15.4z M37.6,10
	c0.5-3.7,2.1-6.4,5.4-8.7c-2.9-1-5.4-1.8-6.6-0.7c-1.3,1-4.7,4.5-4.3,10.2c0.5,5.7,0,26.8,1,26.4C33.7,22.7,38.3,18.6,37.6,10
	L37.6,10z M30.3,37.2c1,0.4,0.6-20.8,1-26.4c0.5-5.7-3-9.2-4.3-10.2c-1.3-1-3.7-0.3-6.6,0.7c3.3,2.3,5,5,5.4,8.7
	C25.1,18.6,29.7,22.7,30.3,37.2L30.3,37.2z"/>
</svg>
