<svg id="Layer_1" data-name="Layer 1" xmlns="http://www.w3.org/2000/svg" viewBox="0 0 64 81"><defs><style>.cls-1{fill:#9ca9b3;}</style></defs><title>non_root</title><path class="cls-1" d="M21.9,42.71a4.48,4.48,0,0,1,4.5,4.5v19.2a4.5,4.5,0,0,1-9,0V47.21a4.48,4.48,0,0,1,4.5-4.5Z"/><path class="cls-1" d="M11.7,19.71v29.6a5.57,5.57,0,0,0,5.5,5.6H46.8a5.51,5.51,0,0,0,5.5-5.6V19.71Z"/><path class="cls-1" d="M42.1,42.71a4.48,4.48,0,0,1,4.5,4.5v19.2a4.5,4.5,0,0,1-9,0V47.21a4.48,4.48,0,0,1,4.5-4.5Z"/><path class="cls-1" d="M4.5,22.21A4.48,4.48,0,0,1,9,26.71v19.2a4.5,4.5,0,0,1-9,0V26.71a4.48,4.48,0,0,1,4.5-4.5Z"/><path class="cls-1" d="M59.5,22.21a4.48,4.48,0,0,1,4.5,4.5v19.2a4.5,4.5,0,0,1-9,0V26.71a4.61,4.61,0,0,1,4.5-4.5Z"/><path class="cls-1" d="M34.2.51H29.7c-10,1-17.8,8.3-17.9,17.2H52.2C52.1,8.81,44.3,1.51,34.2.51ZM26,9.71A2.33,2.33,0,0,1,23.7,12a2.26,2.26,0,0,1-2.3-2.3h0a2.33,2.33,0,0,1,2.3-2.3A2.47,2.47,0,0,1,26,9.71Zm17.3,0A2.33,2.33,0,0,1,41,12a2.26,2.26,0,0,1-2.3-2.3h0A2.33,2.33,0,0,1,41,7.41a2.47,2.47,0,0,1,2.3,2.3Z"/></svg>