<svg id="Layer_1" data-name="Layer 1" xmlns="http://www.w3.org/2000/svg" viewBox="0 0 64 81"><defs><style>.cls-1{fill:#9ca9b3;}</style></defs><title>root</title><path class="cls-1" d="M11.9,11.6C10.76,9.49,9.62,7.34,8.46,5.21a3.13,3.13,0,0,1-.1-3.09A2.59,2.59,0,0,1,10.77.58,2.57,2.57,0,0,1,13.16,2l3.09,5.75.38.69c.87-.42,1.68-.84,2.51-1.19a1.08,1.08,0,0,1,.83,0q8.28,4.74,16.54,9.54a2.61,2.61,0,0,1,.27.19c-1.48,4.82-.32,8.45,3.3,10.5A8.09,8.09,0,0,0,50.65,25l6.58,3.73c2.06,1.16,4.11,2.33,6.18,3.48a1,1,0,0,1,.59,1c0,2.31-1.51,3.3-3.66,3.32-11.56.11-23.13,0-34.7,0H3A2.92,2.92,0,0,1,.07,33.1c.3-1.63.63-3.26,1.07-4.86A31.67,31.67,0,0,1,11.41,12.09l.38-.32A1.73,1.73,0,0,0,11.9,11.6ZM20,26.54a4,4,0,0,0,4-4,4,4,0,1,0-4,4Z"/><path class="cls-1" d="M17.52,53.46l-7.41-2.32c-2.41-.76-4.84-1.46-7.23-2.28a4.29,4.29,0,0,1-1.49-7.21,4,4,0,0,1,4.12-.86l17,5.33c2.88.9,5.76,1.8,8.63,2.73a2.82,2.82,0,0,0,1.77,0l25.5-8a4.12,4.12,0,0,1,5.33,2.56A4.26,4.26,0,0,1,61,48.9c-4.61,1.48-9.24,2.9-13.86,4.35-.23.07-.46.16-.85.3l8.78,2.76c2,.62,4,1.22,6,1.86a4.26,4.26,0,0,1,3,4.1,4.07,4.07,0,0,1-3.06,4.06,5.16,5.16,0,0,1-2.47-.08c-8.58-2.65-17.14-5.36-25.72-8a2.62,2.62,0,0,0-1.47,0c-8.58,2.66-17.14,5.36-25.71,8A4.12,4.12,0,0,1,.24,63.66,4.29,4.29,0,0,1,3,58.15c4.62-1.46,9.24-2.89,13.86-4.34l.65-.21Z"/><path class="cls-1" d="M52,11.56A31,31,0,0,1,62.27,26.82L25.2,5.43C30,4,39.14,3.93,47.45,8.53c.1-.16.22-.33.31-.5L51,2.26A2.71,2.71,0,0,1,54.62.92a2.88,2.88,0,0,1,1.05,3.86c-1.09,2-2.23,4.05-3.35,6.08C52.2,11.08,52.09,11.31,52,11.56Z"/></svg>